HIERARCHY
ROOT reference
{
	OFFSET 0.000000 0.000000 0.000000
	CHANNELS 6 Xposition Yposition Zposition Xrotation Yrotation Zrotation
	JOINT root
	{
		OFFSET 0.000000 88.453102 0.000000
		CHANNELS 3 Xrotation Yrotation Zrotation
		JOINT Hips
		{
			OFFSET 0.000000 0.000000 0.000000
			CHANNELS 3 Xrotation Yrotation Zrotation
			JOINT Spine
			{
				OFFSET 0.014914 -0.106346 -0.023248
				CHANNELS 3 Xrotation Yrotation Zrotation
				JOINT Spine1
				{
					OFFSET -1.979699 17.390305 6.171420
					CHANNELS 3 Xrotation Yrotation Zrotation
					JOINT Spine2
					{
						OFFSET -2.644549 17.853302 4.335810
						CHANNELS 3 Xrotation Yrotation Zrotation
						JOINT Neck
						{
							OFFSET -5.060850 17.023605 5.395691
							CHANNELS 3 Xrotation Yrotation Zrotation
							JOINT Head
							{
								OFFSET -5.217609 9.440048 4.080801
								CHANNELS 3 Xrotation Yrotation Zrotation
								End Site
								{
									OFFSET 0.000000 0.100006 0.000000
								}
							}
						}
						JOINT RightShoulder
						{
							OFFSET -7.893250 16.903595 3.110021
							CHANNELS 3 Xrotation Yrotation Zrotation
							JOINT RightArm
							{
								OFFSET -13.577600 -2.780106 -8.156349
								CHANNELS 3 Xrotation Yrotation Zrotation
								JOINT RightForearm
								{
									OFFSET -27.384003 -10.247902 -3.124028
									CHANNELS 3 Xrotation Yrotation Zrotation
									JOINT RightHand
									{
										OFFSET -21.860703 -0.720329 11.957902
										CHANNELS 3 Xrotation Yrotation Zrotation
										End Site
										{
											OFFSET 0.000000 0.099998 0.000000
										}
									}
								}
							}
						}
						JOINT LeftShoulder
						{
							OFFSET -2.240109 17.132996 7.690870
							CHANNELS 3 Xrotation Yrotation Zrotation
							JOINT LeftArm
							{
								OFFSET 13.455400 -0.727722 8.776609
								CHANNELS 3 Xrotation Yrotation Zrotation
								JOINT LeftForearm
								{
									OFFSET 20.885000 -20.146797 -4.752972
									CHANNELS 3 Xrotation Yrotation Zrotation
									JOINT LeftHand
									{
										OFFSET -15.157599 -12.260300 15.534901
										CHANNELS 3 Xrotation Yrotation Zrotation
										End Site
										{
											OFFSET 0.000000 0.099998 0.000000
										}
									}
								}
							}
						}
					}
				}
			}
			JOINT RightUpLeg
			{
				OFFSET -7.069730 2.035873 -6.101910
				CHANNELS 3 Xrotation Yrotation Zrotation
				JOINT RightLeg
				{
					OFFSET -16.350403 -38.651100 -16.308199
					CHANNELS 3 Xrotation Yrotation Zrotation
					JOINT RightFoot
					{
						OFFSET 0.913734 -35.411598 -20.994204
						CHANNELS 3 Xrotation Yrotation Zrotation
						JOINT RightToe
						{
							OFFSET -9.736181 -14.765000 -3.367638
							CHANNELS 3 Xrotation Yrotation Zrotation
							End Site
							{
								OFFSET 0.000000 0.100000 0.000000
							}
						}
					}
				}
			}
			JOINT LeftUpLeg
			{
				OFFSET 7.069720 -2.035858 6.101910
				CHANNELS 3 Xrotation Yrotation Zrotation
				JOINT LeftLeg
				{
					OFFSET -4.243489 -41.541599 16.837000
					CHANNELS 3 Xrotation Yrotation Zrotation
					JOINT LeftFoot
					{
						OFFSET 4.363109 -36.779202 -17.995199
						CHANNELS 3 Xrotation Yrotation Zrotation
						JOINT LeftToe
						{
							OFFSET -2.935209 -7.612780 16.049000
							CHANNELS 3 Xrotation Yrotation Zrotation
							End Site
							{
								OFFSET 0.000000 0.100000 0.000000
							}
						}
					}
				}
			}
		}
	}
}
MOTION
Frames: 16
Frame Time: 0.041667
0.000000 0.000000 0.000000 -0.000000 0.000000 -0.000000 0.000002 0.000001 0.000001 0.000001 -0.000003 -0.000004 -0.000002 0.000000 0.000000 0.000002 0.000002 0.000000 -0.000008 -0.000007 0.000003 -0.000003 0.000003 0.000009 0.000005 -0.000006 0.000002 -0.000001 0.000003 -0.000002 -0.000001 0.000002 -0.000004 -0.000005 -0.000003 0.000001 -0.000004 -0.000004 0.000004 -0.000004 -0.000002 0.000005 -0.000008 0.000001 0.000001 0.000001 0.000003 -0.000003 0.000009 -0.000002 -0.000005 -0.000001 -0.000006 -0.000006 0.000013 -0.000002 0.000001 -0.000003 -0.000005 -0.000007 0.000002 0.000002 -0.000003 0.000007 -0.000006 0.000003 0.000002 0.000001 0.000001 0.000001 0.000000 0.000000 -0.000000 -0.000001 0.000000 
0.000000 0.000000 0.000000 -0.000000 0.000000 -0.000000 0.000002 0.000001 0.000001 0.000001 -0.000003 -0.000004 -0.000002 0.000000 0.000000 0.000002 0.000002 0.000000 -0.000008 -0.000007 0.000003 -0.000003 0.000003 0.000009 0.000005 -0.000006 0.000002 -0.000001 0.000003 -0.000002 -0.000001 0.000002 -0.000004 -0.000005 -0.000003 0.000001 -0.000004 -0.000004 0.000004 -0.000004 -0.000002 0.000005 -0.000008 0.000001 0.000001 0.000001 0.000003 -0.000003 0.000009 -0.000002 -0.000005 -0.000001 -0.000006 -0.000006 0.000013 -0.000002 0.000001 -0.000003 -0.000005 -0.000007 0.000002 0.000002 -0.000003 0.000007 -0.000006 0.000003 0.000002 0.000001 0.000001 0.000001 0.000000 0.000000 -0.000000 -0.000001 0.000000 
1.940520 0.000000 4.662150 -0.000000 0.000000 -0.000000 0.440299 -2.823425 -1.126307 -0.627263 -0.269221 0.638362 -0.016149 0.691710 0.339344 -0.043267 0.496516 0.282958 -0.057418 0.338836 0.184075 0.289516 0.623109 -0.072182 0.575685 1.136150 0.022101 0.470883 -0.245911 -0.781936 -0.794131 1.905470 1.241745 -0.038173 0.121247 -0.062549 0.525839 0.031737 -0.405512 -0.080836 -0.127206 0.125112 -0.746931 0.549560 1.851797 -1.275424 -0.836301 -1.916852 0.618957 1.075097 -0.791655 -3.886205 0.903234 -0.751634 0.133988 -0.203764 0.350430 -2.447812 0.482570 -0.305724 6.403496 1.730739 3.043772 5.940686 1.522233 -0.064224 -5.440622 0.075235 -1.340309 2.675495 0.132753 0.819238 -3.119592 -0.047257 0.887705 
4.111361 0.000000 10.615600 -0.000000 0.000000 -0.000000 0.600271 -5.607805 -1.840140 -1.361208 -0.594774 1.385427 0.273284 1.363895 0.542477 0.342154 0.991939 0.372238 0.172720 0.700681 0.230247 0.447415 1.212771 -0.027302 0.836715 2.227740 0.166692 0.981273 -0.536693 -1.612998 -2.599695 3.839437 3.126319 -0.133992 0.427750 -0.220195 1.381582 0.141915 -1.058114 -0.089731 -0.282569 0.152368 -1.708717 1.116475 3.722625 -2.173170 -1.389073 -3.252675 1.076268 1.802195 -1.373048 -10.048960 -2.612686 -3.376834 0.937320 -1.371420 2.396828 -4.427069 3.045395 -2.630734 14.759912 4.131561 9.424841 10.147755 2.234691 -0.616940 -8.281921 0.165036 -2.036070 12.649285 0.430460 -2.082919 -14.260931 -0.763069 4.568918 
6.456161 0.000000 18.065399 -0.000000 0.000000 -0.000000 0.260493 -7.834238 -1.925851 -1.939858 -0.859550 1.974536 0.832153 1.860513 0.528889 1.105450 1.399801 0.215316 0.660286 1.023647 0.105412 0.516480 1.636182 0.163802 0.832274 3.027857 0.514885 1.425653 -0.946174 -2.294382 -4.922319 5.611320 5.336511 -0.230345 0.738963 -0.379600 2.259291 0.285653 -1.736920 -0.036894 -0.589149 0.107183 -2.735326 1.650876 5.460948 -2.656727 -1.674949 -3.967965 1.358933 2.196855 -1.752126 -17.157357 -8.578128 -7.134632 2.131774 -2.955689 5.290801 -5.898627 5.339568 -5.568911 22.437071 6.621088 17.446060 11.944813 1.103849 -1.386245 -7.772987 0.146417 -1.911763 28.445385 -0.208620 -9.194920 -29.098655 -3.133044 11.724477 
8.631442 0.000000 23.268299 -0.000000 0.000000 -0.000000 -0.747729 -8.302093 -1.877371 -2.503547 -1.124437 2.548495 1.595923 2.201926 0.395225 2.174316 1.598297 -0.099111 1.365246 1.222528 -0.128032 0.658020 1.586425 0.368826 0.917392 2.957743 0.936594 1.352997 -1.656096 -2.024454 -5.738428 6.929656 6.074749 -0.219299 0.703165 -0.361299 2.295936 0.334699 -1.736360 -0.011843 -1.514321 0.153025 -3.464324 1.624901 6.643092 -2.692425 -1.695745 -4.020637 1.473707 2.506127 -2.130888 -19.219671 -7.328791 -6.180367 3.022795 -4.035570 7.354184 -14.739932 2.515910 -3.562536 21.118796 6.107712 20.069674 10.762873 -1.768202 -1.692363 -3.420089 0.032440 -0.843398 43.018919 -6.173815 -17.721257 -26.576934 -0.797655 25.355332 
8.222893 0.000000 32.376701 -0.000000 0.000000 -0.000000 -2.158464 -6.261707 -1.305127 -3.932487 -1.826923 4.003933 2.519430 2.756691 -0.155494 3.490236 1.763763 -1.069032 2.225733 1.408100 -0.811269 1.011058 0.832626 0.453591 1.404360 1.592040 1.282634 1.303660 -2.646078 -1.746316 -3.693003 7.652124 4.966696 0.023754 -0.075267 0.038865 1.893395 0.359322 -1.515431 -0.234696 -2.609929 0.543769 -3.452327 -0.615678 6.791892 -1.972776 -1.268196 -2.955405 1.453538 1.814682 -2.223586 -17.444003 -0.274563 -0.658675 2.659769 -3.605276 6.522317 -30.391442 -1.514276 0.721877 20.043311 5.698875 20.938927 8.610609 3.124422 -1.076984 -1.136539 0.005191 -0.280456 41.045803 0.724869 -15.795296 -12.811292 2.630918 16.841979 
7.464173 0.000000 42.179298 -0.000000 0.000000 -0.000000 -2.589894 -4.787407 -0.896465 -4.449934 -2.092474 4.531145 2.788180 2.712196 -0.363461 3.898285 1.524877 -1.398230 2.511099 1.269871 -1.040548 0.992097 0.625958 0.357179 1.416541 1.225968 1.113212 1.385983 -2.374499 -1.939269 -2.635926 7.350182 3.562564 0.095671 -0.302021 0.156227 1.625672 0.347018 -1.388557 -0.164804 -2.247236 0.421391 -3.652654 -0.743777 6.532312 -1.790216 -1.156822 -2.684138 1.514766 1.242599 -2.122499 -15.855243 -0.392380 1.123723 1.466088 -2.093568 3.697884 -25.767281 -2.532595 0.492036 38.806546 11.346629 0.211241 7.371469 5.699954 0.173326 -7.034180 0.121348 -1.731050 35.794382 3.735480 -10.713830 -2.145059 0.762204 5.649710 
7.055624 0.000000 51.370098 -0.000000 0.000000 -0.000000 -2.688022 -3.624638 -0.525494 -4.895108 -2.325642 4.984793 2.906920 2.706106 -0.628243 4.086884 1.375419 -1.790751 2.640641 1.177233 -1.309820 0.930666 0.513765 0.163718 1.425197 1.017702 0.748364 1.368554 -1.724975 -2.037305 -1.900475 6.452376 2.193455 0.092135 -0.290867 0.150446 1.283357 0.267690 -1.193185 -0.115633 -1.706118 0.312141 -3.694318 -0.183486 6.521906 -1.766901 -1.142520 -2.649471 1.911614 1.435943 -2.422562 -14.375914 -3.263221 0.913913 0.724759 -1.071074 1.863946 -19.397374 4.361381 -4.582758 43.124786 11.167709 -7.550440 5.305832 7.528926 1.544186 -13.774354 0.436013 -3.365452 32.732305 3.815030 -8.167733 2.778872 -0.112126 0.487303 
11.342305 0.000000 57.067200 -0.000000 0.000000 -0.000000 -2.460525 -3.027556 -0.175044 -5.127608 -2.449226 5.221752 2.848670 2.755587 -0.919190 4.012417 1.390062 -2.193261 2.580682 1.177620 -1.582361 0.842854 0.507433 -0.116201 1.449126 0.982681 0.206703 1.318419 -0.860854 -2.127900 -1.667811 5.190392 1.139835 0.026708 -0.084613 0.043706 0.893931 0.134553 -0.948752 -0.107381 -0.894854 0.232717 -3.532516 0.921395 6.645473 -1.810935 -1.169528 -2.714961 2.452071 2.034638 -2.881279 -13.317159 -6.736393 -0.917367 0.876364 -1.285906 2.244607 -13.261933 17.008086 -16.093548 29.781503 9.660997 1.952533 1.998436 8.368715 2.839298 -19.245707 0.831750 -4.659677 32.829871 2.919009 -8.522242 1.767492 0.012736 1.707270 
13.985905 0.000000 62.013199 -0.000000 0.000000 -0.000000 -1.741184 -3.566620 0.024701 -4.755374 -2.251946 4.842394 2.499333 2.667750 -0.940710 3.516458 1.474999 -2.142762 2.239924 1.201636 -1.539760 0.655342 0.794026 -0.465497 1.349853 1.477753 -0.545789 1.817105 -0.201862 -3.122261 -2.795447 4.834304 1.141111 -0.007333 0.023264 -0.012007 0.731835 0.066136 -0.869808 -0.138258 1.346450 0.053572 -3.317031 2.343183 5.840656 -1.657589 -1.075161 -2.486807 1.998740 0.505556 -1.855692 -13.398702 -7.986653 -3.709818 2.359574 -3.239512 5.825391 -9.926381 25.101930 -24.929871 23.822240 7.390017 10.589869 -3.792113 6.969217 5.363640 -20.175262 0.911262 -4.875761 35.796028 3.120255 -9.406934 2.211039 0.009783 1.459330 
16.284906 0.000000 67.240898 -0.000000 0.000000 -0.000000 -1.087964 -4.156556 -0.070694 -4.302330 -2.016050 4.380751 2.186518 2.614126 -0.857524 3.065062 1.649450 -1.934854 1.926463 1.291329 -1.392096 0.313135 0.894807 -0.682109 0.899204 1.636130 -1.168555 1.750888 0.515697 -3.167816 -3.484370 4.023469 0.574605 -0.008888 0.028195 -0.014554 0.280216 -0.046089 -0.612892 0.032592 2.753314 -0.353726 -2.937905 4.275126 4.494651 -1.087587 -0.716956 -1.636008 1.302012 -0.786427 -0.816631 -12.752142 -9.424634 -5.857301 3.257214 -4.306708 7.885330 -8.544984 30.247370 -31.123321 21.417011 6.039210 17.801177 -8.995786 5.027519 7.364941 -17.606747 0.700185 -4.275819 39.067705 4.316119 -11.139997 0.326665 0.036732 3.308080 
18.228006 0.000000 72.223999 -0.000000 0.000000 -0.000000 -0.711293 -4.301512 -0.387769 -3.780280 -1.749958 3.848872 1.946109 2.515688 -0.739320 2.714850 1.785072 -1.670554 1.685506 1.362728 -1.207956 -0.080096 0.727041 -0.703749 0.230740 1.316885 -1.472225 1.054806 1.149665 -2.110589 -3.389970 2.747097 -0.468582 0.000850 -0.002744 0.001413 -0.410293 -0.208080 -0.169972 0.385310 2.891907 -0.868963 -2.318834 6.313988 2.857191 -0.140838 -0.095378 -0.212835 0.720065 -1.125243 -0.196204 -11.076700 -11.207476 -6.993519 3.286951 -4.340714 7.952365 -9.144546 32.791294 -33.714306 20.811868 5.663130 22.534691 -12.491287 3.407083 8.276077 -12.445311 0.358734 -3.046094 40.072812 5.351201 -12.954329 -3.314226 0.053245 6.508313 
19.710606 0.000000 77.007500 -0.000000 0.000000 -0.000000 -0.484246 -3.019050 -0.860993 -3.021950 -1.374098 3.076441 1.581663 1.944142 -0.710988 2.214256 1.333771 -1.502400 1.380720 1.025708 -1.080365 -0.032290 0.446367 -0.420575 0.140485 0.808874 -0.900269 0.576743 1.012155 -1.243035 -2.728769 1.801148 0.276009 -0.156268 0.499428 -0.256963 -0.790571 -0.373843 0.263895 0.530793 2.191305 -0.984303 -0.880487 6.626571 1.756306 0.880111 0.613498 1.337055 1.425415 0.712609 -0.611361 -8.053519 -11.042357 -6.448913 3.221283 -4.265465 7.804197 -10.098917 32.315298 -32.842206 16.202064 2.634233 24.736493 -14.241228 2.344002 7.483547 -4.757124 0.058799 -1.172377 29.172158 2.314238 -12.582928 -3.308577 -0.100687 6.147467 
23.239706 0.000000 87.167999 -0.000000 0.000000 -0.000000 -1.006607 0.668808 -0.272696 -1.125555 -0.489009 1.145545 0.894365 0.502609 -0.571212 1.271061 0.132881 -1.018704 0.832999 0.156805 -0.718988 0.114109 -0.208210 -0.156483 0.307659 -0.387568 -0.190190 0.038446 0.272252 -0.126839 1.069507 0.426868 0.558698 -0.076597 0.243820 -0.125670 -0.845811 0.065344 0.709800 0.403537 0.279389 -0.589353 1.137498 3.113951 -0.185105 1.630087 1.160793 2.486509 0.322272 -0.143737 0.807080 2.109474 -1.075720 -0.111584 1.460933 -2.086691 3.685341 -14.061267 11.089527 -13.245354 10.088596 1.362245 -2.076667 -9.487986 0.336329 2.268508 2.859458 0.011545 0.705557 8.206361 0.683565 -3.574986 0.713859 -0.002188 0.118001 
24.830807 0.000000 92.403000 -0.000000 0.000000 -0.000000 -0.912428 0.943026 -0.047435 -0.187491 -0.079603 0.190799 0.332786 0.059190 -0.229423 0.479062 -0.101833 -0.396303 0.324012 -0.044491 -0.276755 0.206806 -0.177790 -0.088652 0.433760 -0.322177 0.015848 0.001751 0.150795 -0.035343 1.263319 -0.073705 0.085851 0.019490 -0.061748 0.031887 -0.568608 0.089654 0.460794 0.238069 0.159627 -0.347445 1.100009 0.720443 -0.398844 0.934467 0.652404 1.420043 -0.020924 -0.569019 0.647552 3.046156 0.720241 0.580357 0.585744 -0.871387 1.512224 -4.809546 2.557579 -4.906102 1.208543 -0.294180 -2.407401 -5.165176 -0.150568 1.095989 2.820389 0.011153 0.695936 2.481368 0.261177 -1.737477 0.999767 -0.002303 -0.083541 
